<mxfile host="Electron" modified="2024-05-11T01:20:35.115Z" agent="Mozilla/5.0 (Windows NT 10.0; Win64; x64) AppleWebKit/537.36 (KHTML, like Gecko) draw.io/24.2.5 Chrome/120.0.6099.109 Electron/28.1.0 Safari/537.36" etag="wpveXKSxZLEyrNHqz1If" version="24.2.5" type="device">
  <diagram name="第 1 页" id="kDpwMAGy_JXWOYc4Z3X5">
    <mxGraphModel dx="3580" dy="2990" grid="0" gridSize="10" guides="1" tooltips="1" connect="1" arrows="1" fold="1" page="0" pageScale="1" pageWidth="827" pageHeight="1169" math="0" shadow="0">
      <root>
        <mxCell id="0" />
        <mxCell id="1" parent="0" />
        <mxCell id="ej-Zh59PrubexaycehPU-132" value="" style="whiteSpace=wrap;html=1;" vertex="1" parent="1">
          <mxGeometry x="1396" y="-20" width="390" height="102.25" as="geometry" />
        </mxCell>
        <mxCell id="ej-Zh59PrubexaycehPU-112" value="" style="whiteSpace=wrap;html=1;fillColor=#d5e8d4;strokeColor=#82b366;" vertex="1" parent="1">
          <mxGeometry x="-49" y="749.75" width="138" height="326" as="geometry" />
        </mxCell>
        <mxCell id="ej-Zh59PrubexaycehPU-23" value="" style="whiteSpace=wrap;html=1;" vertex="1" parent="1">
          <mxGeometry x="240" y="1225.75" width="615" height="206" as="geometry" />
        </mxCell>
        <mxCell id="ej-Zh59PrubexaycehPU-4" value="" style="whiteSpace=wrap;html=1;fillColor=#dae8fc;strokeColor=#6c8ebf;" vertex="1" parent="1">
          <mxGeometry x="97" y="768.75" width="1163" height="300" as="geometry" />
        </mxCell>
        <mxCell id="ej-Zh59PrubexaycehPU-67" value="" style="whiteSpace=wrap;html=1;fillColor=#fff2cc;strokeColor=#d6b656;" vertex="1" parent="1">
          <mxGeometry x="1085" y="797" width="137" height="228.5" as="geometry" />
        </mxCell>
        <mxCell id="UM-xdD_IHaC8osSIvd0_-58" value="" style="whiteSpace=wrap;html=1;" parent="1" vertex="1">
          <mxGeometry x="806" y="881.25" width="186" height="79.5" as="geometry" />
        </mxCell>
        <mxCell id="UM-xdD_IHaC8osSIvd0_-42" value="" style="whiteSpace=wrap;html=1;fillColor=#fff2cc;strokeColor=#d6b656;" parent="1" vertex="1">
          <mxGeometry x="187" y="834.75" width="516" height="184" as="geometry" />
        </mxCell>
        <mxCell id="UM-xdD_IHaC8osSIvd0_-47" value="" style="whiteSpace=wrap;html=1;fillColor=#f8cecc;strokeColor=#b85450;" parent="1" vertex="1">
          <mxGeometry x="438" y="855.75" width="256" height="141" as="geometry" />
        </mxCell>
        <mxCell id="OA_Rr2lVNBwTItIs_N7d-2" value="" style="whiteSpace=wrap;html=1;fillColor=#e1d5e7;strokeColor=#9673a6;" parent="1" vertex="1">
          <mxGeometry x="237" y="-461" width="296" height="772" as="geometry" />
        </mxCell>
        <mxCell id="qptfLOysjQ_-md8SZlLQ-1" value="&lt;div&gt;&lt;span style=&quot;background-color: initial;&quot;&gt;;&amp;nbsp;&lt;/span&gt;&lt;br&gt;&lt;/div&gt;&lt;div&gt;&lt;br&gt;&lt;/div&gt;" style="whiteSpace=wrap;html=1;fillColor=#e1d5e7;strokeColor=#9673a6;" parent="1" vertex="1">
          <mxGeometry x="258" y="-418" width="263" height="145" as="geometry" />
        </mxCell>
        <mxCell id="qptfLOysjQ_-md8SZlLQ-2" value="Loop" style="text;html=1;align=center;verticalAlign=middle;resizable=0;points=[];autosize=1;strokeColor=none;fillColor=none;" parent="1" vertex="1">
          <mxGeometry x="362.5" y="-490" width="45" height="26" as="geometry" />
        </mxCell>
        <mxCell id="OA_Rr2lVNBwTItIs_N7d-1" value="coroutine" style="text;html=1;align=center;verticalAlign=middle;resizable=0;points=[];autosize=1;strokeColor=none;fillColor=none;" parent="1" vertex="1">
          <mxGeometry x="353" y="-444" width="67" height="26" as="geometry" />
        </mxCell>
        <mxCell id="OA_Rr2lVNBwTItIs_N7d-5" value="&amp;nbsp;LoopCo&lt;div&gt;&lt;br&gt;&lt;/div&gt;" style="text;html=1;align=center;verticalAlign=middle;resizable=0;points=[];autosize=1;strokeColor=none;fillColor=none;" parent="1" vertex="1">
          <mxGeometry x="747" y="-428" width="63" height="41" as="geometry" />
        </mxCell>
        <mxCell id="OA_Rr2lVNBwTItIs_N7d-6" value="管理协程、计时器、网络等" style="text;html=1;align=center;verticalAlign=middle;resizable=0;points=[];autosize=1;strokeColor=none;fillColor=none;" parent="1" vertex="1">
          <mxGeometry x="307" y="-520" width="162" height="26" as="geometry" />
        </mxCell>
        <mxCell id="OA_Rr2lVNBwTItIs_N7d-7" value="对单个协程进行管理" style="text;html=1;align=center;verticalAlign=middle;resizable=0;points=[];autosize=1;strokeColor=none;fillColor=none;" parent="1" vertex="1">
          <mxGeometry x="722" y="-451" width="126" height="26" as="geometry" />
        </mxCell>
        <mxCell id="2UoLOEMjMZglWUsTyc0v-1" value="activeCoroutines" style="whiteSpace=wrap;html=1;" parent="1" vertex="1">
          <mxGeometry x="318" y="-411" width="149" height="33" as="geometry" />
        </mxCell>
        <mxCell id="2UoLOEMjMZglWUsTyc0v-2" value="&lt;div&gt;&lt;span style=&quot;background-color: initial;&quot;&gt;activeCoroQueue&lt;/span&gt;&lt;br&gt;&lt;/div&gt;" style="whiteSpace=wrap;html=1;" parent="1" vertex="1">
          <mxGeometry x="318" y="-362" width="149" height="33" as="geometry" />
        </mxCell>
        <mxCell id="2UoLOEMjMZglWUsTyc0v-3" value="coroutineQueue" style="whiteSpace=wrap;html=1;" parent="1" vertex="1">
          <mxGeometry x="318" y="-318" width="151" height="33" as="geometry" />
        </mxCell>
        <mxCell id="2UoLOEMjMZglWUsTyc0v-4" value="" style="endArrow=classic;html=1;rounded=0;" parent="1" edge="1">
          <mxGeometry width="50" height="50" relative="1" as="geometry">
            <mxPoint x="467" y="-346" as="sourcePoint" />
            <mxPoint x="694" y="-346" as="targetPoint" />
          </mxGeometry>
        </mxCell>
        <mxCell id="2UoLOEMjMZglWUsTyc0v-5" value="" style="endArrow=classic;html=1;rounded=0;" parent="1" edge="1">
          <mxGeometry width="50" height="50" relative="1" as="geometry">
            <mxPoint x="469" y="-302" as="sourcePoint" />
            <mxPoint x="554" y="-302" as="targetPoint" />
          </mxGeometry>
        </mxCell>
        <mxCell id="2UoLOEMjMZglWUsTyc0v-8" value="初始化0" style="text;html=1;align=center;verticalAlign=middle;resizable=0;points=[];autosize=1;strokeColor=none;fillColor=none;" parent="1" vertex="1">
          <mxGeometry x="474" y="-404" width="61" height="26" as="geometry" />
        </mxCell>
        <mxCell id="2UoLOEMjMZglWUsTyc0v-10" value="" style="curved=1;endArrow=classic;html=1;rounded=0;" parent="1" edge="1">
          <mxGeometry width="50" height="50" relative="1" as="geometry">
            <mxPoint x="316" y="-333" as="sourcePoint" />
            <mxPoint x="322" y="-368" as="targetPoint" />
            <Array as="points">
              <mxPoint x="297" y="-336" />
              <mxPoint x="291" y="-343" />
              <mxPoint x="291" y="-359" />
              <mxPoint x="293" y="-365" />
              <mxPoint x="310" y="-374" />
            </Array>
          </mxGeometry>
        </mxCell>
        <mxCell id="2UoLOEMjMZglWUsTyc0v-13" value="" style="curved=1;endArrow=classic;html=1;rounded=0;" parent="1" edge="1">
          <mxGeometry width="50" height="50" relative="1" as="geometry">
            <mxPoint x="316" y="-289" as="sourcePoint" />
            <mxPoint x="322" y="-324" as="targetPoint" />
            <Array as="points">
              <mxPoint x="297" y="-292" />
              <mxPoint x="291" y="-299" />
              <mxPoint x="291" y="-315" />
              <mxPoint x="293" y="-321" />
              <mxPoint x="310" y="-330" />
            </Array>
          </mxGeometry>
        </mxCell>
        <mxCell id="UM-xdD_IHaC8osSIvd0_-2" value="" style="endArrow=classic;html=1;rounded=0;" parent="1" edge="1">
          <mxGeometry width="50" height="50" relative="1" as="geometry">
            <mxPoint x="888" y="-345.84" as="sourcePoint" />
            <mxPoint x="959" y="-345.84" as="targetPoint" />
          </mxGeometry>
        </mxCell>
        <mxCell id="UM-xdD_IHaC8osSIvd0_-3" value="Loop* loop;" style="whiteSpace=wrap;html=1;fillColor=#d5e8d4;strokeColor=#82b366;" parent="1" vertex="1">
          <mxGeometry x="697" y="-403" width="191" height="40" as="geometry" />
        </mxCell>
        <mxCell id="UM-xdD_IHaC8osSIvd0_-4" value="DLList node;" style="whiteSpace=wrap;html=1;fillColor=#d5e8d4;strokeColor=#82b366;" parent="1" vertex="1">
          <mxGeometry x="697" y="-363" width="191" height="40" as="geometry" />
        </mxCell>
        <mxCell id="UM-xdD_IHaC8osSIvd0_-5" value="uint32_t ref_count;" style="whiteSpace=wrap;html=1;fillColor=#d5e8d4;strokeColor=#82b366;" parent="1" vertex="1">
          <mxGeometry x="697" y="-324" width="191" height="40" as="geometry" />
        </mxCell>
        <mxCell id="UM-xdD_IHaC8osSIvd0_-8" value="&lt;div&gt;&amp;nbsp;handle;&lt;/div&gt;&lt;div&gt;&amp;nbsp;parent_handle;&lt;/div&gt;" style="whiteSpace=wrap;html=1;fillColor=#d5e8d4;strokeColor=#82b366;" parent="1" vertex="1">
          <mxGeometry x="697" y="-284" width="191" height="53" as="geometry" />
        </mxCell>
        <mxCell id="UM-xdD_IHaC8osSIvd0_-9" value="Loop* loop;" style="whiteSpace=wrap;html=1;fillColor=#d5e8d4;strokeColor=#82b366;" parent="1" vertex="1">
          <mxGeometry x="961" y="-403" width="191" height="40" as="geometry" />
        </mxCell>
        <mxCell id="UM-xdD_IHaC8osSIvd0_-10" value="DLList node;" style="whiteSpace=wrap;html=1;fillColor=#d5e8d4;strokeColor=#82b366;" parent="1" vertex="1">
          <mxGeometry x="961" y="-363" width="191" height="40" as="geometry" />
        </mxCell>
        <mxCell id="UM-xdD_IHaC8osSIvd0_-11" value="uint32_t ref_count;" style="whiteSpace=wrap;html=1;fillColor=#d5e8d4;strokeColor=#82b366;" parent="1" vertex="1">
          <mxGeometry x="961" y="-324" width="191" height="40" as="geometry" />
        </mxCell>
        <mxCell id="UM-xdD_IHaC8osSIvd0_-12" value="&lt;div&gt;&amp;nbsp;handle;&lt;/div&gt;&lt;div&gt;&amp;nbsp;parent_handle;&lt;/div&gt;" style="whiteSpace=wrap;html=1;fillColor=#d5e8d4;strokeColor=#82b366;" parent="1" vertex="1">
          <mxGeometry x="961" y="-284" width="191" height="53" as="geometry" />
        </mxCell>
        <mxCell id="UM-xdD_IHaC8osSIvd0_-13" value="待销毁" style="whiteSpace=wrap;html=1;fillColor=#d5e8d4;strokeColor=#82b366;" parent="1" vertex="1">
          <mxGeometry x="556" y="-323.5" width="112" height="39" as="geometry" />
        </mxCell>
        <mxCell id="UM-xdD_IHaC8osSIvd0_-18" value="get_return_object()" style="whiteSpace=wrap;html=1;" parent="1" vertex="1">
          <mxGeometry x="1213" y="-362" width="187" height="60" as="geometry" />
        </mxCell>
        <mxCell id="UM-xdD_IHaC8osSIvd0_-19" value="1 生成协程结果&lt;div&gt;&lt;br&gt;&lt;/div&gt;" style="text;html=1;align=center;verticalAlign=middle;resizable=0;points=[];autosize=1;strokeColor=none;fillColor=none;" parent="1" vertex="1">
          <mxGeometry x="1411" y="-352.5" width="100" height="41" as="geometry" />
        </mxCell>
        <mxCell id="UM-xdD_IHaC8osSIvd0_-20" value="2 loopco管理协程" style="text;html=1;align=center;verticalAlign=middle;resizable=0;points=[];autosize=1;strokeColor=none;fillColor=none;" parent="1" vertex="1">
          <mxGeometry x="1411" y="-333" width="111" height="26" as="geometry" />
        </mxCell>
        <mxCell id="UM-xdD_IHaC8osSIvd0_-22" value="final_suspend()" style="whiteSpace=wrap;html=1;" parent="1" vertex="1">
          <mxGeometry x="1213" y="-302" width="187" height="60" as="geometry" />
        </mxCell>
        <mxCell id="UM-xdD_IHaC8osSIvd0_-23" value="1. 协程结束后挂起，通过Loop统一销毁&lt;div&gt;&lt;br&gt;&lt;/div&gt;" style="text;html=1;align=center;verticalAlign=middle;resizable=0;points=[];autosize=1;strokeColor=none;fillColor=none;" parent="1" vertex="1">
          <mxGeometry x="1411" y="-296" width="226" height="41" as="geometry" />
        </mxCell>
        <mxCell id="UM-xdD_IHaC8osSIvd0_-24" value="2.&amp;nbsp; 若有父协程，唤醒" style="text;html=1;align=center;verticalAlign=middle;resizable=0;points=[];autosize=1;strokeColor=none;fillColor=none;" parent="1" vertex="1">
          <mxGeometry x="1412" y="-268" width="131" height="26" as="geometry" />
        </mxCell>
        <mxCell id="UM-xdD_IHaC8osSIvd0_-26" value="协程" style="text;html=1;align=center;verticalAlign=middle;resizable=0;points=[];autosize=1;strokeColor=none;fillColor=none;" parent="1" vertex="1">
          <mxGeometry x="1285.5" y="-399" width="42" height="26" as="geometry" />
        </mxCell>
        <mxCell id="UM-xdD_IHaC8osSIvd0_-27" value="线程池" style="text;html=1;align=center;verticalAlign=middle;resizable=0;points=[];autosize=1;strokeColor=none;fillColor=none;" parent="1" vertex="1">
          <mxGeometry x="398" y="805.75" width="54" height="26" as="geometry" />
        </mxCell>
        <mxCell id="UM-xdD_IHaC8osSIvd0_-28" value="thread1" style="whiteSpace=wrap;html=1;" parent="1" vertex="1">
          <mxGeometry x="200" y="846.75" width="127" height="38" as="geometry" />
        </mxCell>
        <mxCell id="UM-xdD_IHaC8osSIvd0_-29" value="thread2" style="whiteSpace=wrap;html=1;" parent="1" vertex="1">
          <mxGeometry x="200" y="884.75" width="127" height="38" as="geometry" />
        </mxCell>
        <mxCell id="UM-xdD_IHaC8osSIvd0_-30" value="thread3" style="whiteSpace=wrap;html=1;" parent="1" vertex="1">
          <mxGeometry x="200" y="922.75" width="127" height="38" as="geometry" />
        </mxCell>
        <mxCell id="UM-xdD_IHaC8osSIvd0_-31" value="... ..." style="whiteSpace=wrap;html=1;" parent="1" vertex="1">
          <mxGeometry x="200" y="960.75" width="127" height="38" as="geometry" />
        </mxCell>
        <mxCell id="UM-xdD_IHaC8osSIvd0_-32" value="tasks" style="whiteSpace=wrap;html=1;" parent="1" vertex="1">
          <mxGeometry x="444" y="898.25" width="53" height="29" as="geometry" />
        </mxCell>
        <mxCell id="UM-xdD_IHaC8osSIvd0_-33" value="node1" style="whiteSpace=wrap;html=1;" parent="1" vertex="1">
          <mxGeometry x="528" y="898.25" width="53" height="29" as="geometry" />
        </mxCell>
        <mxCell id="UM-xdD_IHaC8osSIvd0_-34" value="" style="endArrow=classic;html=1;rounded=0;" parent="1" edge="1">
          <mxGeometry width="50" height="50" relative="1" as="geometry">
            <mxPoint x="497" y="915.25" as="sourcePoint" />
            <mxPoint x="527" y="915.25" as="targetPoint" />
          </mxGeometry>
        </mxCell>
        <mxCell id="UM-xdD_IHaC8osSIvd0_-35" value="poolNode" style="text;html=1;align=center;verticalAlign=middle;resizable=0;points=[];autosize=1;strokeColor=none;fillColor=none;" parent="1" vertex="1">
          <mxGeometry x="524" y="870.75" width="69" height="26" as="geometry" />
        </mxCell>
        <mxCell id="UM-xdD_IHaC8osSIvd0_-36" value="routine" style="whiteSpace=wrap;html=1;" parent="1" vertex="1">
          <mxGeometry x="528" y="927.25" width="53" height="29" as="geometry" />
        </mxCell>
        <mxCell id="UM-xdD_IHaC8osSIvd0_-37" value="ctx" style="whiteSpace=wrap;html=1;" parent="1" vertex="1">
          <mxGeometry x="528" y="956.25" width="53" height="29" as="geometry" />
        </mxCell>
        <mxCell id="UM-xdD_IHaC8osSIvd0_-38" value="node2" style="whiteSpace=wrap;html=1;" parent="1" vertex="1">
          <mxGeometry x="616" y="896.75" width="53" height="29" as="geometry" />
        </mxCell>
        <mxCell id="UM-xdD_IHaC8osSIvd0_-39" value="" style="endArrow=classic;html=1;rounded=0;" parent="1" edge="1">
          <mxGeometry width="50" height="50" relative="1" as="geometry">
            <mxPoint x="585" y="913.75" as="sourcePoint" />
            <mxPoint x="615" y="913.75" as="targetPoint" />
          </mxGeometry>
        </mxCell>
        <mxCell id="UM-xdD_IHaC8osSIvd0_-40" value="routine" style="whiteSpace=wrap;html=1;" parent="1" vertex="1">
          <mxGeometry x="616" y="925.75" width="53" height="29" as="geometry" />
        </mxCell>
        <mxCell id="UM-xdD_IHaC8osSIvd0_-41" value="ctx" style="whiteSpace=wrap;html=1;" parent="1" vertex="1">
          <mxGeometry x="616" y="954.75" width="53" height="29" as="geometry" />
        </mxCell>
        <mxCell id="UM-xdD_IHaC8osSIvd0_-44" value="" style="shape=flexArrow;endArrow=classic;html=1;rounded=0;" parent="1" edge="1">
          <mxGeometry width="50" height="50" relative="1" as="geometry">
            <mxPoint x="337" y="919.75" as="sourcePoint" />
            <mxPoint x="430" y="919.47" as="targetPoint" />
          </mxGeometry>
        </mxCell>
        <mxCell id="UM-xdD_IHaC8osSIvd0_-45" value="Worker" style="text;html=1;align=center;verticalAlign=middle;resizable=0;points=[];autosize=1;strokeColor=none;fillColor=none;" parent="1" vertex="1">
          <mxGeometry x="352" y="887.75" width="56" height="26" as="geometry" />
        </mxCell>
        <mxCell id="UM-xdD_IHaC8osSIvd0_-46" value="循环读取任务&lt;div&gt;执行&lt;/div&gt;" style="text;html=1;align=center;verticalAlign=middle;resizable=0;points=[];autosize=1;strokeColor=none;fillColor=none;" parent="1" vertex="1">
          <mxGeometry x="338" y="923.25" width="90" height="41" as="geometry" />
        </mxCell>
        <mxCell id="UM-xdD_IHaC8osSIvd0_-48" value="" style="endArrow=classic;html=1;rounded=0;" parent="1" edge="1">
          <mxGeometry width="50" height="50" relative="1" as="geometry">
            <mxPoint x="200" y="870.75" as="sourcePoint" />
            <mxPoint x="156" y="870.75" as="targetPoint" />
          </mxGeometry>
        </mxCell>
        <mxCell id="UM-xdD_IHaC8osSIvd0_-49" value="routine1" style="text;html=1;align=center;verticalAlign=middle;resizable=0;points=[];autosize=1;strokeColor=none;fillColor=none;" parent="1" vertex="1">
          <mxGeometry x="97" y="855.75" width="61" height="26" as="geometry" />
        </mxCell>
        <mxCell id="UM-xdD_IHaC8osSIvd0_-50" value="" style="endArrow=classic;html=1;rounded=0;" parent="1" edge="1">
          <mxGeometry width="50" height="50" relative="1" as="geometry">
            <mxPoint x="200" y="905.75" as="sourcePoint" />
            <mxPoint x="156" y="905.75" as="targetPoint" />
          </mxGeometry>
        </mxCell>
        <mxCell id="UM-xdD_IHaC8osSIvd0_-51" value="routine2" style="text;html=1;align=center;verticalAlign=middle;resizable=0;points=[];autosize=1;strokeColor=none;fillColor=none;" parent="1" vertex="1">
          <mxGeometry x="97" y="890.75" width="61" height="26" as="geometry" />
        </mxCell>
        <mxCell id="UM-xdD_IHaC8osSIvd0_-52" value="" style="endArrow=classic;html=1;rounded=0;" parent="1" edge="1">
          <mxGeometry width="50" height="50" relative="1" as="geometry">
            <mxPoint x="200" y="943.75" as="sourcePoint" />
            <mxPoint x="156" y="943.75" as="targetPoint" />
          </mxGeometry>
        </mxCell>
        <mxCell id="UM-xdD_IHaC8osSIvd0_-53" value="routine3" style="text;html=1;align=center;verticalAlign=middle;resizable=0;points=[];autosize=1;strokeColor=none;fillColor=none;" parent="1" vertex="1">
          <mxGeometry x="97" y="928.75" width="61" height="26" as="geometry" />
        </mxCell>
        <mxCell id="UM-xdD_IHaC8osSIvd0_-54" value="" style="shape=flexArrow;endArrow=classic;html=1;rounded=0;" parent="1" edge="1">
          <mxGeometry width="50" height="50" relative="1" as="geometry">
            <mxPoint x="787.5" y="924.25" as="sourcePoint" />
            <mxPoint x="712.5" y="924.25" as="targetPoint" />
          </mxGeometry>
        </mxCell>
        <mxCell id="UM-xdD_IHaC8osSIvd0_-55" value="PushBack(任务函数、上下文)" style="text;html=1;align=center;verticalAlign=middle;resizable=0;points=[];autosize=1;strokeColor=none;fillColor=none;" parent="1" vertex="1">
          <mxGeometry x="806" y="893.75" width="176" height="26" as="geometry" />
        </mxCell>
        <mxCell id="UM-xdD_IHaC8osSIvd0_-56" value="PushFront(任务函数、上下文)" style="text;html=1;align=center;verticalAlign=middle;resizable=0;points=[];autosize=1;strokeColor=none;fillColor=none;" parent="1" vertex="1">
          <mxGeometry x="806" y="925.75" width="177" height="26" as="geometry" />
        </mxCell>
        <mxCell id="UM-xdD_IHaC8osSIvd0_-57" value="添加任务" style="text;html=1;align=center;verticalAlign=middle;resizable=0;points=[];autosize=1;strokeColor=none;fillColor=none;" parent="1" vertex="1">
          <mxGeometry x="717" y="887.75" width="66" height="26" as="geometry" />
        </mxCell>
        <mxCell id="UM-xdD_IHaC8osSIvd0_-60" value="封装为poolNode" style="text;html=1;align=center;verticalAlign=middle;resizable=0;points=[];autosize=1;strokeColor=none;fillColor=none;" parent="1" vertex="1">
          <mxGeometry x="701" y="939.75" width="105" height="26" as="geometry" />
        </mxCell>
        <mxCell id="UM-xdD_IHaC8osSIvd0_-61" value="done" style="whiteSpace=wrap;html=1;fillColor=#d5e8d4;strokeColor=#82b366;" parent="1" vertex="1">
          <mxGeometry x="1297" y="700" width="122" height="29" as="geometry" />
        </mxCell>
        <mxCell id="UM-xdD_IHaC8osSIvd0_-62" value="work" style="whiteSpace=wrap;html=1;fillColor=#d5e8d4;strokeColor=#82b366;" parent="1" vertex="1">
          <mxGeometry x="1297" y="671" width="122" height="29" as="geometry" />
        </mxCell>
        <mxCell id="UM-xdD_IHaC8osSIvd0_-63" value="Loop" style="whiteSpace=wrap;html=1;fillColor=#d5e8d4;strokeColor=#82b366;" parent="1" vertex="1">
          <mxGeometry x="1297" y="642" width="122" height="29" as="geometry" />
        </mxCell>
        <mxCell id="UM-xdD_IHaC8osSIvd0_-64" value="data" style="whiteSpace=wrap;html=1;fillColor=#d5e8d4;strokeColor=#82b366;" parent="1" vertex="1">
          <mxGeometry x="1297" y="613" width="122" height="29" as="geometry" />
        </mxCell>
        <mxCell id="UM-xdD_IHaC8osSIvd0_-65" value="node" style="whiteSpace=wrap;html=1;fillColor=#d5e8d4;strokeColor=#82b366;" parent="1" vertex="1">
          <mxGeometry x="1297" y="584" width="122" height="29" as="geometry" />
        </mxCell>
        <mxCell id="UM-xdD_IHaC8osSIvd0_-66" value="" style="endArrow=classic;html=1;rounded=0;fillColor=#d5e8d4;strokeColor=#82b366;" parent="1" edge="1">
          <mxGeometry width="50" height="50" relative="1" as="geometry">
            <mxPoint x="1419" y="686.5" as="sourcePoint" />
            <mxPoint x="1475" y="687" as="targetPoint" />
          </mxGeometry>
        </mxCell>
        <mxCell id="UM-xdD_IHaC8osSIvd0_-67" value="task任务" style="whiteSpace=wrap;html=1;fillColor=#d5e8d4;strokeColor=#82b366;" parent="1" vertex="1">
          <mxGeometry x="1477" y="672" width="61" height="28" as="geometry" />
        </mxCell>
        <mxCell id="UM-xdD_IHaC8osSIvd0_-68" value="LoopWorker" style="text;html=1;align=center;verticalAlign=middle;resizable=0;points=[];autosize=1;strokeColor=none;fillColor=none;" parent="1" vertex="1">
          <mxGeometry x="1311" y="558" width="83" height="26" as="geometry" />
        </mxCell>
        <mxCell id="UM-xdD_IHaC8osSIvd0_-72" value="" style="shape=flexArrow;endArrow=classic;html=1;rounded=0;" parent="1" edge="1">
          <mxGeometry width="50" height="50" relative="1" as="geometry">
            <mxPoint x="1354" y="737" as="sourcePoint" />
            <mxPoint x="1354" y="797" as="targetPoint" />
          </mxGeometry>
        </mxCell>
        <mxCell id="UM-xdD_IHaC8osSIvd0_-74" value="&lt;div&gt;ExectorNode&lt;/div&gt;" style="text;html=1;align=center;verticalAlign=middle;resizable=0;points=[];autosize=1;strokeColor=none;fillColor=none;" parent="1" vertex="1">
          <mxGeometry x="1316" y="808.75" width="87" height="26" as="geometry" />
        </mxCell>
        <mxCell id="UM-xdD_IHaC8osSIvd0_-77" value="ExectorContext" style="text;html=1;align=center;verticalAlign=middle;resizable=0;points=[];autosize=1;strokeColor=none;fillColor=none;" parent="1" vertex="1">
          <mxGeometry x="1097.5" y="801.25" width="100" height="26" as="geometry" />
        </mxCell>
        <mxCell id="UM-xdD_IHaC8osSIvd0_-78" value="WorkQueue" style="whiteSpace=wrap;html=1;fillColor=#e1d5e7;strokeColor=#9673a6;" parent="1" vertex="1">
          <mxGeometry x="1093" y="833.75" width="115" height="31" as="geometry" />
        </mxCell>
        <mxCell id="UM-xdD_IHaC8osSIvd0_-79" value="threadpool" style="whiteSpace=wrap;html=1;" parent="1" vertex="1">
          <mxGeometry x="1092" y="864.75" width="117" height="34" as="geometry" />
        </mxCell>
        <mxCell id="UM-xdD_IHaC8osSIvd0_-80" value="封装" style="text;html=1;align=center;verticalAlign=middle;resizable=0;points=[];autosize=1;strokeColor=none;fillColor=none;" parent="1" vertex="1">
          <mxGeometry x="1369" y="742" width="42" height="26" as="geometry" />
        </mxCell>
        <mxCell id="UM-xdD_IHaC8osSIvd0_-81" value="node" style="whiteSpace=wrap;html=1;" parent="1" vertex="1">
          <mxGeometry x="1310.5" y="837.25" width="100" height="29" as="geometry" />
        </mxCell>
        <mxCell id="UM-xdD_IHaC8osSIvd0_-82" value="LoopWoker" style="whiteSpace=wrap;html=1;fillColor=#d5e8d4;strokeColor=#82b366;" parent="1" vertex="1">
          <mxGeometry x="1310.5" y="866.25" width="100" height="29" as="geometry" />
        </mxCell>
        <mxCell id="UM-xdD_IHaC8osSIvd0_-83" value="" style="endArrow=classic;html=1;rounded=0;" parent="1" edge="1">
          <mxGeometry width="50" height="50" relative="1" as="geometry">
            <mxPoint x="1208" y="852.75" as="sourcePoint" />
            <mxPoint x="1307.5" y="851.25" as="targetPoint" />
          </mxGeometry>
        </mxCell>
        <mxCell id="UM-xdD_IHaC8osSIvd0_-84" value="node" style="whiteSpace=wrap;html=1;" parent="1" vertex="1">
          <mxGeometry x="1456.5" y="837.25" width="100" height="29" as="geometry" />
        </mxCell>
        <mxCell id="UM-xdD_IHaC8osSIvd0_-85" value="LoopWoker" style="whiteSpace=wrap;html=1;fillColor=#d5e8d4;strokeColor=#82b366;" parent="1" vertex="1">
          <mxGeometry x="1456.5" y="866.25" width="100" height="29" as="geometry" />
        </mxCell>
        <mxCell id="UM-xdD_IHaC8osSIvd0_-86" value="" style="endArrow=classic;html=1;rounded=0;" parent="1" edge="1">
          <mxGeometry width="50" height="50" relative="1" as="geometry">
            <mxPoint x="1410.5" y="852.75" as="sourcePoint" />
            <mxPoint x="1455.5" y="852.75" as="targetPoint" />
          </mxGeometry>
        </mxCell>
        <mxCell id="ej-Zh59PrubexaycehPU-3" value="" style="shape=flexArrow;endArrow=classic;html=1;rounded=0;" edge="1" parent="1">
          <mxGeometry width="50" height="50" relative="1" as="geometry">
            <mxPoint x="1072" y="919.7" as="sourcePoint" />
            <mxPoint x="992" y="919.7" as="targetPoint" />
          </mxGeometry>
        </mxCell>
        <mxCell id="ej-Zh59PrubexaycehPU-5" value="&amp;nbsp;" style="text;html=1;align=center;verticalAlign=middle;resizable=0;points=[];autosize=1;strokeColor=none;fillColor=none;" vertex="1" parent="1">
          <mxGeometry x="622" y="699.75" width="21" height="26" as="geometry" />
        </mxCell>
        <mxCell id="ej-Zh59PrubexaycehPU-6" value="excuter执行器" style="text;html=1;align=center;verticalAlign=middle;resizable=0;points=[];autosize=1;strokeColor=none;fillColor=none;" vertex="1" parent="1">
          <mxGeometry x="701" y="729" width="93" height="26" as="geometry" />
        </mxCell>
        <mxCell id="ej-Zh59PrubexaycehPU-7" value="push" style="text;html=1;align=center;verticalAlign=middle;resizable=0;points=[];autosize=1;strokeColor=none;fillColor=none;" vertex="1" parent="1">
          <mxGeometry x="1014" y="887.25" width="44" height="26" as="geometry" />
        </mxCell>
        <mxCell id="ej-Zh59PrubexaycehPU-9" value="WorkQueue" style="text;html=1;align=center;verticalAlign=middle;resizable=0;points=[];autosize=1;strokeColor=none;fillColor=none;" vertex="1" parent="1">
          <mxGeometry x="263" y="1226.75" width="82" height="26" as="geometry" />
        </mxCell>
        <mxCell id="ej-Zh59PrubexaycehPU-11" value="size" style="whiteSpace=wrap;html=1;" vertex="1" parent="1">
          <mxGeometry x="244" y="1273.75" width="126" height="35" as="geometry" />
        </mxCell>
        <mxCell id="ej-Zh59PrubexaycehPU-12" value="m_impl" style="whiteSpace=wrap;html=1;" vertex="1" parent="1">
          <mxGeometry x="244" y="1308.75" width="126" height="35" as="geometry" />
        </mxCell>
        <mxCell id="ej-Zh59PrubexaycehPU-13" value="" style="endArrow=classic;html=1;rounded=0;" edge="1" parent="1">
          <mxGeometry width="50" height="50" relative="1" as="geometry">
            <mxPoint x="370" y="1325.83" as="sourcePoint" />
            <mxPoint x="415" y="1325.83" as="targetPoint" />
          </mxGeometry>
        </mxCell>
        <mxCell id="ej-Zh59PrubexaycehPU-14" value="mutex" style="whiteSpace=wrap;html=1;" vertex="1" parent="1">
          <mxGeometry x="421" y="1313.75" width="126" height="35" as="geometry" />
        </mxCell>
        <mxCell id="ej-Zh59PrubexaycehPU-15" value="workers" style="whiteSpace=wrap;html=1;" vertex="1" parent="1">
          <mxGeometry x="421" y="1348.75" width="126" height="35" as="geometry" />
        </mxCell>
        <mxCell id="ej-Zh59PrubexaycehPU-16" value="size" style="whiteSpace=wrap;html=1;" vertex="1" parent="1">
          <mxGeometry x="421" y="1383.75" width="126" height="35" as="geometry" />
        </mxCell>
        <mxCell id="ej-Zh59PrubexaycehPU-17" value="" style="endArrow=classic;html=1;rounded=0;" edge="1" parent="1">
          <mxGeometry width="50" height="50" relative="1" as="geometry">
            <mxPoint x="551" y="1369.75" as="sourcePoint" />
            <mxPoint x="593" y="1369.75" as="targetPoint" />
          </mxGeometry>
        </mxCell>
        <mxCell id="ej-Zh59PrubexaycehPU-18" value="node" style="whiteSpace=wrap;html=1;" vertex="1" parent="1">
          <mxGeometry x="595" y="1356.75" width="100" height="29" as="geometry" />
        </mxCell>
        <mxCell id="ej-Zh59PrubexaycehPU-19" value="worker" style="whiteSpace=wrap;html=1;fillColor=#d5e8d4;strokeColor=#82b366;" vertex="1" parent="1">
          <mxGeometry x="595" y="1385.75" width="100" height="29" as="geometry" />
        </mxCell>
        <mxCell id="ej-Zh59PrubexaycehPU-20" value="node" style="whiteSpace=wrap;html=1;" vertex="1" parent="1">
          <mxGeometry x="741" y="1356.75" width="100" height="29" as="geometry" />
        </mxCell>
        <mxCell id="ej-Zh59PrubexaycehPU-21" value="worker" style="whiteSpace=wrap;html=1;fillColor=#d5e8d4;strokeColor=#82b366;" vertex="1" parent="1">
          <mxGeometry x="741" y="1385.75" width="100" height="29" as="geometry" />
        </mxCell>
        <mxCell id="ej-Zh59PrubexaycehPU-22" value="" style="endArrow=classic;html=1;rounded=0;" edge="1" parent="1">
          <mxGeometry width="50" height="50" relative="1" as="geometry">
            <mxPoint x="695" y="1372.25" as="sourcePoint" />
            <mxPoint x="740" y="1372.25" as="targetPoint" />
          </mxGeometry>
        </mxCell>
        <mxCell id="ej-Zh59PrubexaycehPU-24" value="done&lt;div&gt;（完成回调函数指针）&lt;/div&gt;" style="whiteSpace=wrap;html=1;fillColor=#d5e8d4;strokeColor=#82b366;" vertex="1" parent="1">
          <mxGeometry x="929" y="1480.75" width="122" height="29" as="geometry" />
        </mxCell>
        <mxCell id="ej-Zh59PrubexaycehPU-25" value="work&lt;div&gt;(工作函数指针)&lt;/div&gt;" style="whiteSpace=wrap;html=1;fillColor=#d5e8d4;strokeColor=#82b366;" vertex="1" parent="1">
          <mxGeometry x="929" y="1451.75" width="122" height="29" as="geometry" />
        </mxCell>
        <mxCell id="ej-Zh59PrubexaycehPU-26" value="Loop" style="whiteSpace=wrap;html=1;fillColor=#d5e8d4;strokeColor=#82b366;" vertex="1" parent="1">
          <mxGeometry x="929" y="1422.75" width="122" height="29" as="geometry" />
        </mxCell>
        <mxCell id="ej-Zh59PrubexaycehPU-27" value="data" style="whiteSpace=wrap;html=1;fillColor=#d5e8d4;strokeColor=#82b366;" vertex="1" parent="1">
          <mxGeometry x="929" y="1393.75" width="122" height="29" as="geometry" />
        </mxCell>
        <mxCell id="ej-Zh59PrubexaycehPU-28" value="node" style="whiteSpace=wrap;html=1;fillColor=#d5e8d4;strokeColor=#82b366;" vertex="1" parent="1">
          <mxGeometry x="929" y="1364.75" width="122" height="29" as="geometry" />
        </mxCell>
        <mxCell id="ej-Zh59PrubexaycehPU-29" value="" style="endArrow=classic;html=1;rounded=0;fillColor=#d5e8d4;strokeColor=#82b366;" edge="1" parent="1">
          <mxGeometry width="50" height="50" relative="1" as="geometry">
            <mxPoint x="1051" y="1467.25" as="sourcePoint" />
            <mxPoint x="1107" y="1467.75" as="targetPoint" />
          </mxGeometry>
        </mxCell>
        <mxCell id="ej-Zh59PrubexaycehPU-30" value="task任务" style="whiteSpace=wrap;html=1;fillColor=#d5e8d4;strokeColor=#82b366;" vertex="1" parent="1">
          <mxGeometry x="1109" y="1452.75" width="61" height="28" as="geometry" />
        </mxCell>
        <mxCell id="ej-Zh59PrubexaycehPU-31" value="LoopWorker" style="text;html=1;align=center;verticalAlign=middle;resizable=0;points=[];autosize=1;strokeColor=none;fillColor=none;" vertex="1" parent="1">
          <mxGeometry x="943" y="1338.75" width="83" height="26" as="geometry" />
        </mxCell>
        <mxCell id="ej-Zh59PrubexaycehPU-32" value="" style="shape=flexArrow;endArrow=classic;html=1;rounded=0;" edge="1" parent="1">
          <mxGeometry width="50" height="50" relative="1" as="geometry">
            <mxPoint x="846" y="1399.96" as="sourcePoint" />
            <mxPoint x="920" y="1399.75" as="targetPoint" />
          </mxGeometry>
        </mxCell>
        <mxCell id="ej-Zh59PrubexaycehPU-33" value="结构图" style="text;html=1;align=center;verticalAlign=middle;resizable=0;points=[];autosize=1;strokeColor=none;fillColor=none;" vertex="1" parent="1">
          <mxGeometry x="514" y="1190.75" width="54" height="26" as="geometry" />
        </mxCell>
        <mxCell id="ej-Zh59PrubexaycehPU-37" value="" style="whiteSpace=wrap;html=1;fillColor=#e1d5e7;strokeColor=#9673a6;" vertex="1" parent="1">
          <mxGeometry x="295" y="193.5" width="176" height="54" as="geometry" />
        </mxCell>
        <mxCell id="ej-Zh59PrubexaycehPU-34" value="wq" style="whiteSpace=wrap;html=1;" vertex="1" parent="1">
          <mxGeometry x="331" y="202" width="125" height="33" as="geometry" />
        </mxCell>
        <mxCell id="ej-Zh59PrubexaycehPU-38" value="work" style="text;html=1;align=center;verticalAlign=middle;resizable=0;points=[];autosize=1;strokeColor=none;fillColor=none;" vertex="1" parent="1">
          <mxGeometry x="366.5" y="165" width="43" height="26" as="geometry" />
        </mxCell>
        <mxCell id="ej-Zh59PrubexaycehPU-47" value="done&lt;div&gt;（完成回调函数指针）&lt;/div&gt;" style="whiteSpace=wrap;html=1;fillColor=#d5e8d4;strokeColor=#82b366;" vertex="1" parent="1">
          <mxGeometry x="689" y="322" width="122" height="29" as="geometry" />
        </mxCell>
        <mxCell id="ej-Zh59PrubexaycehPU-48" value="work&lt;div&gt;(工作函数指针)&lt;/div&gt;" style="whiteSpace=wrap;html=1;fillColor=#d5e8d4;strokeColor=#82b366;" vertex="1" parent="1">
          <mxGeometry x="689" y="293" width="122" height="29" as="geometry" />
        </mxCell>
        <mxCell id="ej-Zh59PrubexaycehPU-49" value="Loop" style="whiteSpace=wrap;html=1;fillColor=#d5e8d4;strokeColor=#82b366;" vertex="1" parent="1">
          <mxGeometry x="689" y="264" width="122" height="29" as="geometry" />
        </mxCell>
        <mxCell id="ej-Zh59PrubexaycehPU-50" value="data" style="whiteSpace=wrap;html=1;fillColor=#d5e8d4;strokeColor=#82b366;" vertex="1" parent="1">
          <mxGeometry x="689" y="235" width="122" height="29" as="geometry" />
        </mxCell>
        <mxCell id="ej-Zh59PrubexaycehPU-51" value="node" style="whiteSpace=wrap;html=1;fillColor=#d5e8d4;strokeColor=#82b366;" vertex="1" parent="1">
          <mxGeometry x="689" y="206" width="122" height="29" as="geometry" />
        </mxCell>
        <mxCell id="ej-Zh59PrubexaycehPU-54" value="LoopWorker" style="text;html=1;align=center;verticalAlign=middle;resizable=0;points=[];autosize=1;strokeColor=none;fillColor=none;" vertex="1" parent="1">
          <mxGeometry x="703" y="180" width="83" height="26" as="geometry" />
        </mxCell>
        <mxCell id="ej-Zh59PrubexaycehPU-55" value="" style="endArrow=classic;html=1;rounded=0;" edge="1" parent="1">
          <mxGeometry width="50" height="50" relative="1" as="geometry">
            <mxPoint x="460.5" y="223.79000000000002" as="sourcePoint" />
            <mxPoint x="685.5" y="223.79000000000002" as="targetPoint" />
          </mxGeometry>
        </mxCell>
        <mxCell id="ej-Zh59PrubexaycehPU-56" value="" style="endArrow=classic;html=1;rounded=0;" edge="1" parent="1">
          <mxGeometry width="50" height="50" relative="1" as="geometry">
            <mxPoint x="816" y="225" as="sourcePoint" />
            <mxPoint x="887" y="225" as="targetPoint" />
          </mxGeometry>
        </mxCell>
        <mxCell id="ej-Zh59PrubexaycehPU-57" value="done&lt;div&gt;（完成回调函数指针）&lt;/div&gt;" style="whiteSpace=wrap;html=1;fillColor=#d5e8d4;strokeColor=#82b366;" vertex="1" parent="1">
          <mxGeometry x="892" y="326" width="122" height="29" as="geometry" />
        </mxCell>
        <mxCell id="ej-Zh59PrubexaycehPU-58" value="work&lt;div&gt;(工作函数指针)&lt;/div&gt;" style="whiteSpace=wrap;html=1;fillColor=#d5e8d4;strokeColor=#82b366;" vertex="1" parent="1">
          <mxGeometry x="892" y="297" width="122" height="29" as="geometry" />
        </mxCell>
        <mxCell id="ej-Zh59PrubexaycehPU-59" value="Loop" style="whiteSpace=wrap;html=1;fillColor=#d5e8d4;strokeColor=#82b366;" vertex="1" parent="1">
          <mxGeometry x="892" y="268" width="122" height="29" as="geometry" />
        </mxCell>
        <mxCell id="ej-Zh59PrubexaycehPU-60" value="data" style="whiteSpace=wrap;html=1;fillColor=#d5e8d4;strokeColor=#82b366;" vertex="1" parent="1">
          <mxGeometry x="892" y="239" width="122" height="29" as="geometry" />
        </mxCell>
        <mxCell id="ej-Zh59PrubexaycehPU-61" value="node" style="whiteSpace=wrap;html=1;fillColor=#d5e8d4;strokeColor=#82b366;" vertex="1" parent="1">
          <mxGeometry x="892" y="210" width="122" height="29" as="geometry" />
        </mxCell>
        <mxCell id="ej-Zh59PrubexaycehPU-63" value="对单个任务进行管理" style="text;html=1;align=center;verticalAlign=middle;resizable=0;points=[];autosize=1;strokeColor=none;fillColor=none;" vertex="1" parent="1">
          <mxGeometry x="685" y="165" width="126" height="26" as="geometry" />
        </mxCell>
        <mxCell id="ej-Zh59PrubexaycehPU-64" value="任务链表" style="text;html=1;align=center;verticalAlign=middle;resizable=0;points=[];autosize=1;strokeColor=none;fillColor=none;" vertex="1" parent="1">
          <mxGeometry x="438" y="867.75" width="66" height="26" as="geometry" />
        </mxCell>
        <mxCell id="ej-Zh59PrubexaycehPU-65" value="pushBack" style="text;html=1;align=center;verticalAlign=middle;resizable=0;points=[];autosize=1;strokeColor=none;fillColor=none;" vertex="1" parent="1">
          <mxGeometry x="712" y="872.25" width="71" height="26" as="geometry" />
        </mxCell>
        <mxCell id="ej-Zh59PrubexaycehPU-66" value="routine" style="whiteSpace=wrap;html=1;fillColor=#e1d5e7;strokeColor=#9673a6;" vertex="1" parent="1">
          <mxGeometry x="1092" y="960.75" width="123" height="38" as="geometry" />
        </mxCell>
        <mxCell id="ej-Zh59PrubexaycehPU-68" value="" style="endArrow=none;dashed=1;html=1;dashPattern=1 3;strokeWidth=2;rounded=0;" edge="1" parent="1">
          <mxGeometry width="50" height="50" relative="1" as="geometry">
            <mxPoint x="1030" y="1153.75" as="sourcePoint" />
            <mxPoint x="1034" y="671" as="targetPoint" />
          </mxGeometry>
        </mxCell>
        <mxCell id="ej-Zh59PrubexaycehPU-70" value="LoopAsync" style="text;html=1;align=center;verticalAlign=middle;resizable=0;points=[];autosize=1;strokeColor=none;fillColor=none;" vertex="1" parent="1">
          <mxGeometry x="1068.5" y="-132" width="77" height="26" as="geometry" />
        </mxCell>
        <mxCell id="ej-Zh59PrubexaycehPU-71" value="data" style="whiteSpace=wrap;html=1;" vertex="1" parent="1">
          <mxGeometry x="1047" y="-72.25" width="120" height="33" as="geometry" />
        </mxCell>
        <mxCell id="ej-Zh59PrubexaycehPU-72" value="loop" style="whiteSpace=wrap;html=1;" vertex="1" parent="1">
          <mxGeometry x="1047" y="-39.25" width="120" height="33" as="geometry" />
        </mxCell>
        <mxCell id="ej-Zh59PrubexaycehPU-73" value="type" style="whiteSpace=wrap;html=1;" vertex="1" parent="1">
          <mxGeometry x="1047" y="-6.25" width="120" height="33" as="geometry" />
        </mxCell>
        <mxCell id="ej-Zh59PrubexaycehPU-74" value="flag" style="whiteSpace=wrap;html=1;" vertex="1" parent="1">
          <mxGeometry x="1047" y="26.75" width="120" height="33" as="geometry" />
        </mxCell>
        <mxCell id="ej-Zh59PrubexaycehPU-75" value="node" style="whiteSpace=wrap;html=1;" vertex="1" parent="1">
          <mxGeometry x="1047" y="-105.25" width="120" height="33" as="geometry" />
        </mxCell>
        <mxCell id="ej-Zh59PrubexaycehPU-76" value="callback" style="whiteSpace=wrap;html=1;" vertex="1" parent="1">
          <mxGeometry x="1047" y="125.75" width="120" height="33" as="geometry" />
        </mxCell>
        <mxCell id="ej-Zh59PrubexaycehPU-77" value="sendFlag" style="whiteSpace=wrap;html=1;" vertex="1" parent="1">
          <mxGeometry x="1047" y="59.75" width="120" height="33" as="geometry" />
        </mxCell>
        <mxCell id="ej-Zh59PrubexaycehPU-78" value="req" style="whiteSpace=wrap;html=1;" vertex="1" parent="1">
          <mxGeometry x="1047" y="92.75" width="120" height="33" as="geometry" />
        </mxCell>
        <mxCell id="ej-Zh59PrubexaycehPU-79" value="data" style="whiteSpace=wrap;html=1;" vertex="1" parent="1">
          <mxGeometry x="1239" y="108.25" width="120" height="33" as="geometry" />
        </mxCell>
        <mxCell id="ej-Zh59PrubexaycehPU-80" value="type" style="whiteSpace=wrap;html=1;" vertex="1" parent="1">
          <mxGeometry x="1239" y="141.25" width="120" height="33" as="geometry" />
        </mxCell>
        <mxCell id="ej-Zh59PrubexaycehPU-81" value="flags" style="whiteSpace=wrap;html=1;" vertex="1" parent="1">
          <mxGeometry x="1239" y="174.25" width="120" height="33" as="geometry" />
        </mxCell>
        <mxCell id="ej-Zh59PrubexaycehPU-82" value="node" style="whiteSpace=wrap;html=1;" vertex="1" parent="1">
          <mxGeometry x="1239" y="207.25" width="120" height="33" as="geometry" />
        </mxCell>
        <mxCell id="ej-Zh59PrubexaycehPU-83" value="overlapped" style="whiteSpace=wrap;html=1;" vertex="1" parent="1">
          <mxGeometry x="1239" y="240.25" width="120" height="33" as="geometry" />
        </mxCell>
        <mxCell id="ej-Zh59PrubexaycehPU-84" value="LoopRequest" style="text;html=1;align=center;verticalAlign=middle;resizable=0;points=[];autosize=1;strokeColor=none;fillColor=none;" vertex="1" parent="1">
          <mxGeometry x="1251.5" y="82.25" width="89" height="26" as="geometry" />
        </mxCell>
        <mxCell id="ej-Zh59PrubexaycehPU-87" value="" style="whiteSpace=wrap;html=1;fillColor=#e1d5e7;strokeColor=#9673a6;" vertex="1" parent="1">
          <mxGeometry x="308" y="-216" width="163" height="92" as="geometry" />
        </mxCell>
        <mxCell id="ej-Zh59PrubexaycehPU-85" value="activeReqs" style="whiteSpace=wrap;html=1;" vertex="1" parent="1">
          <mxGeometry x="327" y="-205" width="125" height="33" as="geometry" />
        </mxCell>
        <mxCell id="ej-Zh59PrubexaycehPU-86" value="reqPendingQueue" style="whiteSpace=wrap;html=1;" vertex="1" parent="1">
          <mxGeometry x="327" y="-172" width="125" height="33" as="geometry" />
        </mxCell>
        <mxCell id="ej-Zh59PrubexaycehPU-88" value="requests" style="text;html=1;align=center;verticalAlign=middle;resizable=0;points=[];autosize=1;strokeColor=none;fillColor=none;" vertex="1" parent="1">
          <mxGeometry x="353" y="-246" width="64" height="26" as="geometry" />
        </mxCell>
        <mxCell id="ej-Zh59PrubexaycehPU-89" value="" style="shape=flexArrow;endArrow=classic;html=1;rounded=0;" edge="1" parent="1">
          <mxGeometry width="50" height="50" relative="1" as="geometry">
            <mxPoint x="1173" y="110.5" as="sourcePoint" />
            <mxPoint x="1223" y="110.5" as="targetPoint" />
          </mxGeometry>
        </mxCell>
        <mxCell id="ej-Zh59PrubexaycehPU-90" value="" style="shape=flexArrow;endArrow=classic;html=1;rounded=0;" edge="1" parent="1">
          <mxGeometry width="50" height="50" relative="1" as="geometry">
            <mxPoint x="1368.5" y="260.25" as="sourcePoint" />
            <mxPoint x="1415.5" y="260.25" as="targetPoint" />
          </mxGeometry>
        </mxCell>
        <mxCell id="ej-Zh59PrubexaycehPU-92" value="异步操作结构" style="rounded=1;whiteSpace=wrap;html=1;" vertex="1" parent="1">
          <mxGeometry x="1422.5" y="240.25" width="91" height="48" as="geometry" />
        </mxCell>
        <mxCell id="ej-Zh59PrubexaycehPU-93" value="" style="endArrow=classic;html=1;rounded=0;" edge="1" parent="1">
          <mxGeometry width="50" height="50" relative="1" as="geometry">
            <mxPoint x="1215" y="981.25" as="sourcePoint" />
            <mxPoint x="1305" y="981.75" as="targetPoint" />
          </mxGeometry>
        </mxCell>
        <mxCell id="ej-Zh59PrubexaycehPU-94" value="从Queue中获取&lt;span style=&quot;text-wrap: nowrap;&quot;&gt;ExectorNode&lt;/span&gt;" style="whiteSpace=wrap;html=1;" vertex="1" parent="1">
          <mxGeometry x="-38" y="783.75" width="117" height="43" as="geometry" />
        </mxCell>
        <mxCell id="ej-Zh59PrubexaycehPU-95" value="work()执行任务" style="whiteSpace=wrap;html=1;" vertex="1" parent="1">
          <mxGeometry x="-38" y="836.75" width="117" height="43" as="geometry" />
        </mxCell>
        <mxCell id="ej-Zh59PrubexaycehPU-98" value="LoopWorker&lt;div&gt;放入Loop调度&lt;/div&gt;" style="whiteSpace=wrap;html=1;" vertex="1" parent="1">
          <mxGeometry x="-38" y="889.75" width="117" height="43" as="geometry" />
        </mxCell>
        <mxCell id="ej-Zh59PrubexaycehPU-101" value="" style="shape=flexArrow;endArrow=classic;html=1;rounded=0;" edge="1" parent="1">
          <mxGeometry width="50" height="50" relative="1" as="geometry">
            <mxPoint x="1628" y="591" as="sourcePoint" />
            <mxPoint x="1543" y="664" as="targetPoint" />
          </mxGeometry>
        </mxCell>
        <mxCell id="ej-Zh59PrubexaycehPU-106" value="" style="whiteSpace=wrap;html=1;" vertex="1" parent="1">
          <mxGeometry x="1691" y="761.75" width="276" height="127" as="geometry" />
        </mxCell>
        <mxCell id="ej-Zh59PrubexaycehPU-102" value="&lt;div&gt;1. 传值： LoopWorker、WorkQueue&lt;/div&gt;&lt;div&gt;&lt;br&gt;&lt;/div&gt;" style="text;html=1;align=center;verticalAlign=middle;resizable=0;points=[];autosize=1;strokeColor=none;fillColor=none;" vertex="1" parent="1">
          <mxGeometry x="1703" y="789.25" width="212" height="41" as="geometry" />
        </mxCell>
        <mxCell id="ej-Zh59PrubexaycehPU-103" value="push操作：" style="text;html=1;align=center;verticalAlign=middle;resizable=0;points=[];autosize=1;strokeColor=none;fillColor=none;" vertex="1" parent="1">
          <mxGeometry x="1706" y="766.5" width="80" height="26" as="geometry" />
        </mxCell>
        <mxCell id="ej-Zh59PrubexaycehPU-104" value="2.将loopworker放入队列&amp;nbsp;" style="text;html=1;align=center;verticalAlign=middle;resizable=0;points=[];autosize=1;strokeColor=none;fillColor=none;" vertex="1" parent="1">
          <mxGeometry x="1703" y="820.75" width="150" height="26" as="geometry" />
        </mxCell>
        <mxCell id="ej-Zh59PrubexaycehPU-105" value="3. 将routine 和 上下文传给线程池的任务队列" style="text;html=1;align=center;verticalAlign=middle;resizable=0;points=[];autosize=1;strokeColor=none;fillColor=none;" vertex="1" parent="1">
          <mxGeometry x="1703" y="852.75" width="255" height="26" as="geometry" />
        </mxCell>
        <mxCell id="ej-Zh59PrubexaycehPU-107" value="向系统发送异步操作" style="whiteSpace=wrap;html=1;fillColor=#a20025;strokeColor=#6F0000;fontColor=#ffffff;" vertex="1" parent="1">
          <mxGeometry x="-40" y="940.75" width="120" height="45" as="geometry" />
        </mxCell>
        <mxCell id="ej-Zh59PrubexaycehPU-109" value="将剩余queue中的任务&lt;div&gt;提交给线程池的任务队列中&lt;/div&gt;" style="whiteSpace=wrap;html=1;" vertex="1" parent="1">
          <mxGeometry x="-41" y="1004.75" width="120" height="60" as="geometry" />
        </mxCell>
        <mxCell id="ej-Zh59PrubexaycehPU-110" value="单个线程执行的任务" style="text;html=1;align=center;verticalAlign=middle;resizable=0;points=[];autosize=1;strokeColor=none;fillColor=none;" vertex="1" parent="1">
          <mxGeometry x="1308" y="970.75" width="126" height="26" as="geometry" />
        </mxCell>
        <mxCell id="ej-Zh59PrubexaycehPU-111" value="routine(context)" style="text;html=1;align=center;verticalAlign=middle;resizable=0;points=[];autosize=1;strokeColor=none;fillColor=none;" vertex="1" parent="1">
          <mxGeometry x="-35" y="748.5" width="101" height="26" as="geometry" />
        </mxCell>
        <mxCell id="ej-Zh59PrubexaycehPU-113" value="HANDLE_TYPE_ASYNC" style="text;html=1;align=center;verticalAlign=middle;resizable=0;points=[];autosize=1;strokeColor=none;fillColor=none;" vertex="1" parent="1">
          <mxGeometry x="1173" y="-2" width="153" height="26" as="geometry" />
        </mxCell>
        <mxCell id="ej-Zh59PrubexaycehPU-114" value="loop" style="text;html=1;align=center;verticalAlign=middle;resizable=0;points=[];autosize=1;strokeColor=none;fillColor=none;" vertex="1" parent="1">
          <mxGeometry x="1189" y="-36.5" width="41" height="26" as="geometry" />
        </mxCell>
        <mxCell id="ej-Zh59PrubexaycehPU-119" value="" style="whiteSpace=wrap;html=1;fillColor=#e1d5e7;strokeColor=#9673a6;" vertex="1" parent="1">
          <mxGeometry x="307" y="-76" width="148.5" height="98" as="geometry" />
        </mxCell>
        <mxCell id="ej-Zh59PrubexaycehPU-115" value="activeHandles" style="whiteSpace=wrap;html=1;" vertex="1" parent="1">
          <mxGeometry x="322.5" y="-64" width="119" height="37" as="geometry" />
        </mxCell>
        <mxCell id="ej-Zh59PrubexaycehPU-117" value="handleQueue" style="whiteSpace=wrap;html=1;" vertex="1" parent="1">
          <mxGeometry x="322.5" y="-27" width="119" height="37" as="geometry" />
        </mxCell>
        <mxCell id="ej-Zh59PrubexaycehPU-120" value="handles" style="text;html=1;align=center;verticalAlign=middle;resizable=0;points=[];autosize=1;strokeColor=none;fillColor=none;" vertex="1" parent="1">
          <mxGeometry x="348.5" y="-102" width="60" height="26" as="geometry" />
        </mxCell>
        <mxCell id="ej-Zh59PrubexaycehPU-121" value="" style="endArrow=classic;html=1;rounded=0;" edge="1" parent="1">
          <mxGeometry width="50" height="50" relative="1" as="geometry">
            <mxPoint x="441.5" y="-8.98" as="sourcePoint" />
            <mxPoint x="647" y="-9" as="targetPoint" />
          </mxGeometry>
        </mxCell>
        <mxCell id="ej-Zh59PrubexaycehPU-122" value="wqAsync" style="whiteSpace=wrap;html=1;fillColor=#e1d5e7;strokeColor=#9673a6;" vertex="1" parent="1">
          <mxGeometry x="651" y="-27" width="114" height="34" as="geometry" />
        </mxCell>
        <mxCell id="ej-Zh59PrubexaycehPU-125" value="REQUEST_TYPE_ASYNC" style="text;html=1;align=center;verticalAlign=middle;resizable=0;points=[];autosize=1;strokeColor=none;fillColor=none;" vertex="1" parent="1">
          <mxGeometry x="1367.5" y="148.25" width="162" height="26" as="geometry" />
        </mxCell>
        <mxCell id="ej-Zh59PrubexaycehPU-126" value="HANDLE_FLAG_REF" style="text;html=1;align=center;verticalAlign=middle;resizable=0;points=[];autosize=1;strokeColor=none;fillColor=none;" vertex="1" parent="1">
          <mxGeometry x="1173" y="26.75" width="135" height="26" as="geometry" />
        </mxCell>
        <mxCell id="ej-Zh59PrubexaycehPU-128" value="状态：" style="text;html=1;align=center;verticalAlign=middle;resizable=0;points=[];autosize=1;strokeColor=none;fillColor=none;" vertex="1" parent="1">
          <mxGeometry x="1421" y="-20" width="54" height="26" as="geometry" />
        </mxCell>
        <mxCell id="ej-Zh59PrubexaycehPU-129" value="HANDLE_FLAG_REF：loopAsync插入loop-&amp;gt;handlequeue中&lt;div&gt;&lt;br&gt;&lt;/div&gt;" style="text;html=1;align=center;verticalAlign=middle;resizable=0;points=[];autosize=1;strokeColor=none;fillColor=none;" vertex="1" parent="1">
          <mxGeometry x="1419" y="4" width="342" height="41" as="geometry" />
        </mxCell>
        <mxCell id="ej-Zh59PrubexaycehPU-130" value="HANDLE_FLAG_ACTIVE:&amp;nbsp;&lt;span style=&quot;text-wrap: wrap;&quot;&gt;activeHandles++&lt;/span&gt;&amp;nbsp;" style="text;html=1;align=center;verticalAlign=middle;resizable=0;points=[];autosize=1;strokeColor=none;fillColor=none;" vertex="1" parent="1">
          <mxGeometry x="1421" y="42" width="254" height="26" as="geometry" />
        </mxCell>
        <mxCell id="ej-Zh59PrubexaycehPU-131" value="" style="shape=flexArrow;endArrow=classic;html=1;rounded=0;" edge="1" parent="1">
          <mxGeometry width="50" height="50" relative="1" as="geometry">
            <mxPoint x="794" y="-9.5" as="sourcePoint" />
            <mxPoint x="943" y="-6" as="targetPoint" />
          </mxGeometry>
        </mxCell>
        <mxCell id="ej-Zh59PrubexaycehPU-133" value="" style="shape=flexArrow;endArrow=classic;html=1;rounded=0;" edge="1" parent="1">
          <mxGeometry width="50" height="50" relative="1" as="geometry">
            <mxPoint x="1308" y="39.55" as="sourcePoint" />
            <mxPoint x="1393" y="39.55" as="targetPoint" />
          </mxGeometry>
        </mxCell>
        <mxCell id="ej-Zh59PrubexaycehPU-134" value="" style="endArrow=classic;html=1;rounded=0;" edge="1" parent="1">
          <mxGeometry width="50" height="50" relative="1" as="geometry">
            <mxPoint x="1109" y="159.75" as="sourcePoint" />
            <mxPoint x="1020" y="348" as="targetPoint" />
            <Array as="points">
              <mxPoint x="1109" y="348" />
            </Array>
          </mxGeometry>
        </mxCell>
        <mxCell id="ej-Zh59PrubexaycehPU-135" value="回调函数&lt;div&gt;1.取出wq所有节点&amp;nbsp; &amp;nbsp; &amp;nbsp;&lt;/div&gt;&lt;div&gt;2. 依次执行done操作&lt;/div&gt;" style="text;html=1;align=center;verticalAlign=middle;resizable=0;points=[];autosize=1;strokeColor=none;fillColor=none;" vertex="1" parent="1">
          <mxGeometry x="1107" y="271" width="132" height="55" as="geometry" />
        </mxCell>
        <mxCell id="ej-Zh59PrubexaycehPU-136" value="" style="endArrow=classic;html=1;rounded=0;exitX=0;exitY=0.5;exitDx=0;exitDy=0;entryX=0;entryY=0.5;entryDx=0;entryDy=0;" edge="1" parent="1" source="ej-Zh59PrubexaycehPU-98" target="ej-Zh59PrubexaycehPU-34">
          <mxGeometry width="50" height="50" relative="1" as="geometry">
            <mxPoint x="-249" y="857" as="sourcePoint" />
            <mxPoint x="-199" y="807" as="targetPoint" />
            <Array as="points">
              <mxPoint x="-90" y="911" />
              <mxPoint x="-90" y="219" />
            </Array>
          </mxGeometry>
        </mxCell>
        <mxCell id="ej-Zh59PrubexaycehPU-137" value="iocp" style="whiteSpace=wrap;html=1;" vertex="1" parent="1">
          <mxGeometry x="322.5" y="68" width="124" height="39" as="geometry" />
        </mxCell>
        <mxCell id="ej-Zh59PrubexaycehPU-138" value="" style="endArrow=classic;html=1;rounded=0;exitX=0;exitY=0.5;exitDx=0;exitDy=0;" edge="1" parent="1" source="ej-Zh59PrubexaycehPU-107">
          <mxGeometry width="50" height="50" relative="1" as="geometry">
            <mxPoint x="-177" y="947" as="sourcePoint" />
            <mxPoint x="322.5" y="91.25" as="targetPoint" />
            <Array as="points">
              <mxPoint x="-183" y="965" />
              <mxPoint x="-177" y="94" />
            </Array>
          </mxGeometry>
        </mxCell>
        <mxCell id="ej-Zh59PrubexaycehPU-139" value="系统执行异步任务" style="rounded=0;whiteSpace=wrap;html=1;" vertex="1" parent="1">
          <mxGeometry x="-302" y="524" width="120" height="60" as="geometry" />
        </mxCell>
        <mxCell id="ej-Zh59PrubexaycehPU-140" value="系统执行完异步操作后发信号给完成端口" style="text;html=1;align=center;verticalAlign=middle;resizable=0;points=[];autosize=1;strokeColor=none;fillColor=none;" vertex="1" parent="1">
          <mxGeometry x="-58" y="63.25" width="234" height="26" as="geometry" />
        </mxCell>
      </root>
    </mxGraphModel>
  </diagram>
</mxfile>
